<?xml version="1.0" standalone="no"?>
<!DOCTYPE svg PUBLIC "-//W3C//DTD SVG 1.1//EN"
"http://www.w3.org/Graphics/SVG/1.1/DTD/svg11.dtd">

<svg width="220" height="255" view_box="0 0 220 255"
xmlns="http://www.w3.org/2000/svg"
xmlns:link="http://www.w3.org/1999/xlink">\n\n<desc>Généré par Mocodo 2.3.7 le Wed, 25 Aug 2021 06:38:18</desc>

<rect id="frame" x="0" y="0" width="220" height="255" fill="#f7f7f7" stroke="none" stroke-width="0"/>

<!-- Association APPARTIENT -->
<line x1="55" y1="77" x2="55" y2="195" stroke="#7fbc41" stroke-width="2"/>
<text x="60.0" y="162" fill="#c51b7d" font-family="Verdana" font-size="12">1,1</text>
<line x1="172" y1="195" x2="55" y2="195" stroke="#7fbc41" stroke-width="2"/>
<text x="106" y="212.0" fill="#c51b7d" font-family="Verdana" font-size="12">0,N</text>
<g id="association-APPARTIENT">
	<path d="M 87 170 a 14 14 90 0 1 14 14 V 195 h -92 V 184 a 14 14 90 0 1 14 -14" fill="#b8e186" stroke="#b8e186" stroke-width="0"/>
	<path d="M 101 195.0 v 11 a 14 14 90 0 1 -14 14 H 23 a 14 14 90 0 1 -14 -14 V 195.0 H 92" fill="#e6f5d0" stroke="#e6f5d0" stroke-width="0"/>
	<rect x="9" y="170" width="92" height="50" fill="none" rx="14" stroke="#7fbc41" stroke-width="2"/>
	<line x1="9" y1="195" x2="101" y2="195" stroke="#7fbc41" stroke-width="1"/>
	<text x="16" y="187.7" fill="#000000" font-family="Verdana" font-size="12">APPARTIENT</text>
</g>

<!-- Entity CATEGORY -->
<g id="entity-CATEGORY">
	<g id="frame-CATEGORY">
		<rect x="133" y="144" width="78" height="25" fill="#f1b6da" stroke="#f1b6da" stroke-width="0"/>
		<rect x="133" y="169.0" width="78" height="77" fill="#fde0ef" stroke="#fde0ef" stroke-width="0"/>
		<rect x="133" y="144" width="78" height="102" fill="none" stroke="#de77ae" stroke-width="2"/>
		<line x1="133" y1="169" x2="211" y2="169" stroke="#de77ae" stroke-width="1"/>
	</g>
	<text x="138" y="161.7" fill="#000000" font-family="Verdana" font-size="12">CATEGORY</text>
	<text x="138" y="186.7" fill="#000000" font-family="Verdana" font-size="12">id</text>
	<line x1="138" y1="189" x2="150" y2="189" stroke="#000000" stroke-width="1"/>
	<text x="138" y="203.8" fill="#000000" font-family="Verdana" font-size="12">name</text>
	<text x="138" y="220.8" fill="#000000" font-family="Verdana" font-size="12">status</text>
</g>

<!-- Entity TASK -->
<g id="entity-TASK">
	<g id="frame-TASK">
		<rect x="14" y="9" width="82" height="25" fill="#f1b6da" stroke="#f1b6da" stroke-width="0"/>
		<rect x="14" y="34.0" width="82" height="111" fill="#fde0ef" stroke="#fde0ef" stroke-width="0"/>
		<rect x="14" y="9" width="82" height="136" fill="none" stroke="#de77ae" stroke-width="2"/>
		<line x1="14" y1="34" x2="96" y2="34" stroke="#de77ae" stroke-width="1"/>
	</g>
	<text x="38" y="26.7" fill="#000000" font-family="Verdana" font-size="12">TASK</text>
	<text x="19" y="51.7" fill="#000000" font-family="Verdana" font-size="12">id</text>
	<line x1="19" y1="54" x2="31" y2="54" stroke="#000000" stroke-width="1"/>
	<text x="19" y="68.7" fill="#000000" font-family="Verdana" font-size="12">title</text>
	<text x="19" y="85.8" fill="#000000" font-family="Verdana" font-size="12">completion</text>
	<text x="19" y="102.8" fill="#000000" font-family="Verdana" font-size="12">category_id</text>
	<text x="19" y="119.8" fill="#000000" font-family="Verdana" font-size="12">status</text>
</g>
</svg>